# xmcd
#
# Track frame offsets:
#	150
#	24383
#	43224
#	63211
#	84888
#	108035
#	131612
#	152158
#	171663
#	190803
#	213897
#	231082
#	249019
#	265761
#	285306
#
# Disc length: 4075 seconds
#
# Revision: 1
# Processed by: cddbd v1.5.2PL0 Copyright (c) Steve Scherf et al.
# Submitted via: audiograbber 1.83.01
#
DISCID=bd0fe90f
DTITLE=Various Artist - 100% R&B [CD4]
DYEAR=2009
DGENRE=R&B
TTITLE0=Full Flava Ft. Chantay Savage - September
TTITLE1=Sinclair - Ain't No Casanova [97 Groove Mix]
TTITLE2=Avani - Don't U Worry
TTITLE3=Donna Gardier - Something Special
TTITLE4=Marley Marl - Hummin
TTITLE5=Rahsaan Patterson - Stop Breaking My Heart
TTITLE6=Vikter Duplaix Ft. Esthero - Another Great Love Gone By
TTITLE7=Bucky Jonson Ft. Fergie - Vapor
TTITLE8=Tha 4orce with Marissa Anglin - Neva Shoulda
TTITLE9=Andreus - Hey Young World [VRS Remix]
TTITLE10=Beverlei Brown - Gonna Get Over You [Rishi Rich Remix]
TTITLE11=Velvet Ft. Emily Riley - The Only One
TTITLE12=Mack1 - Never Let Go
TTITLE13=Babyblu - Higher
TTITLE14=Upside - Heart Of Mine
EXTD=
EXTT0=
EXTT1=
EXTT2=
EXTT3=
EXTT4=
EXTT5=
EXTT6=
EXTT7=
EXTT8=
EXTT9=
EXTT10=
EXTT11=
EXTT12=
EXTT13=
EXTT14=
PLAYORDER=
